<?xml version="1.0" encoding="utf-8"?>
<!-- Generator: Adobe Illustrator 22.1.0, SVG Export Plug-In . SVG Version: 6.00 Build 0)  -->
<svg version="1.1" id="Layer_1" xmlns="http://www.w3.org/2000/svg" xmlns:xlink="http://www.w3.org/1999/xlink" x="0px" y="0px"
	 viewBox="0 0 55 55" width="50" height="50" style="enable-background:new 0 0 55 55;" xml:space="preserve">
<style type="text/css">
	.st0{fill:none;stroke:#000000;stroke-width:2;stroke-miterlimit:10;}
	.st1{fill:none;stroke:#000000;stroke-miterlimit:10;}
</style>
<g>
	<circle class="st0" cx="27.5" cy="27.4" r="25.5"/>
	<path class="st1" d="M16.8,4.2l1.4,2.1c0.2,0.3,0.6,0.5,1,0.5L25,6.4c0.3,0,0.5,0.1,0.7,0.2l2.9,2.2C28.8,9,29.2,9,29.5,8.9L34,7.5
		c0.2-0.1,0.3-0.1,0.4-0.3l3.1-3.3"/>
	<path class="st1" d="M6.5,13l8.5,4.9c0.4,0.2,0.6,0.6,0.5,1l-0.3,2.2c-0.1,0.5,0.2,0.9,0.6,1.1l3.8,1.7c0.3,0.1,0.5,0.3,0.6,0.6
		l1.1,3.2c0.1,0.4,0,0.8-0.2,1.1l-1.6,1.7c-0.4,0.5-1.2,0.4-1.6-0.1L16.1,28c-0.3-0.3-0.7-0.5-1.1-0.4l-6.8,1.8
		c-0.3,0.1-0.6,0.3-0.7,0.7L6,34.2c-0.2,0.6,0.2,1.2,0.7,1.3l4.9,1.1c0.2,0,0.3,0,0.5,0l9.6-2.4c0.4-0.1,0.8,0,1.1,0.4l3.2,4.3
		c0.3,0.3,0.3,0.8,0.1,1.1l-6.8,11.4"/>
	<path class="st1" d="M47.3,11.3l-8.6,8.2c-0.4,0.4-0.5,0.9-0.3,1.4l2.2,4.6c0.1,0.3,0.4,0.5,0.7,0.6l8.8,2.9c0.7,0.2,1,1.1,0.6,1.7
		l-1.9,3.2c-0.3,0.4-0.8,0.7-1.3,0.5l-5.2-1.1c-0.3-0.1-0.7,0-1,0.2l-6.7,5.1c-0.5,0.4-0.6,1.1-0.2,1.6l6.3,8.8"/>
</g>
</svg>
