<?xml version="1.0" encoding="utf-8"?>
<!-- Generator: Adobe Illustrator 22.1.0, SVG Export Plug-In . SVG Version: 6.00 Build 0)  -->
<svg version="1.1" id="Layer_1" xmlns="http://www.w3.org/2000/svg" xmlns:xlink="http://www.w3.org/1999/xlink" x="0px" y="0px"
	 viewBox="0 0 50 50" style="enable-background:new 0 0 50 50;" xml:space="preserve">
<style type="text/css">
	.st0{fill:none;stroke:#62D2A2;stroke-miterlimit:10;}
	.st1{fill:none;stroke:#3EC1D3;stroke-width:2;stroke-miterlimit:10;}
</style>
<g>
	<path class="st0" d="M15.3,3.8l1.3,1.9c0.2,0.3,0.5,0.5,0.9,0.5l5.3-0.4c0.3,0,0.5,0.1,0.6,0.2L26,8c0.2,0.2,0.5,0.2,0.8,0.1
		l4.1-1.3c0.2-0.1,0.3-0.1,0.4-0.3l2.8-3"/>
	<path class="st0" d="M5.9,11.8l7.7,4.5c0.4,0.2,0.5,0.5,0.5,0.9l-0.3,2c-0.1,0.5,0.2,0.8,0.5,1l3.5,1.5c0.3,0.1,0.5,0.3,0.5,0.5
		l1,2.9c0.1,0.4,0,0.7-0.2,1l-1.5,1.5c-0.4,0.5-1.1,0.4-1.5-0.1l-1.6-2.2c-0.3-0.3-0.6-0.5-1-0.4l-6.2,1.6c-0.3,0.1-0.5,0.3-0.6,0.6
		l-1.4,3.7c-0.2,0.5,0.2,1.1,0.6,1.2l4.5,1c0.2,0,0.3,0,0.5,0l8.7-2.2c0.4-0.1,0.7,0,1,0.4l2.9,3.9c0.3,0.3,0.3,0.7,0.1,1l-6.2,10.4
		"/>
	<path class="st0" d="M43,10.3l-7.8,7.5c-0.4,0.4-0.5,0.8-0.3,1.3l2,4.2c0.1,0.3,0.4,0.5,0.6,0.5l8,2.6c0.6,0.2,0.9,1,0.5,1.5
		l-1.7,2.9c-0.3,0.4-0.7,0.6-1.2,0.5l-4.7-1c-0.3-0.1-0.6,0-0.9,0.2l-6.1,4.6c-0.5,0.4-0.5,1-0.2,1.5l5.7,8"/>
	<circle class="st1" cx="25" cy="24.9" r="23.2"/>
</g>
</svg>
