<?xml version="1.0" encoding="utf-8"?>
<!-- Generator: Adobe Illustrator 22.1.0, SVG Export Plug-In . SVG Version: 6.00 Build 0)  -->
<svg version="1.1" id="Layer_1" xmlns="http://www.w3.org/2000/svg" xmlns:xlink="http://www.w3.org/1999/xlink" x="0px" y="0px"
	 viewBox="0 0 90 90" style="enable-background:new 0 0 90 90;" xml:space="preserve">
<style type="text/css">
	.st0{fill:none;stroke:#F8F3D4;stroke-miterlimit:10;}
	.st1{fill:none;stroke:#F8F3D4;stroke-width:2;stroke-miterlimit:10;}
</style>
<g>
	<line class="st0" x1="17.1" y1="17.9" x2="68.9" y2="14.2"/>
	<path class="st0" d="M72.9,17.9l-11.5,3.3C44.6,26,27.3,28.5,9.8,28.5l0,0"/>
	<path class="st0" d="M6.3,39.6l3.9-1.1c23.1-6.6,47.1-9.1,71-7.6l0,0"/>
	<line class="st0" x1="7.2" y1="53.2" x2="82.7" y2="35.9"/>
	<path class="st0" d="M8.7,58.3L28,52.7c18.1-5.2,36.9-7,55.7-5.3l0,0"/>
	<line class="st0" x1="30.4" y1="61" x2="80.2" y2="61"/>
	<line class="st0" x1="9.4" y1="61" x2="23.3" y2="61"/>
	<path class="st0" d="M22.9,76.5l1.5-0.5C42,70,60.2,66,78.6,64l0,0"/>
	<circle class="st0" cx="64.3" cy="39.6" r="2.2"/>
	<circle class="st0" cx="26.9" cy="61" r="3.6"/>
	<circle class="st1" cx="45" cy="44.7" r="38.7"/>
</g>
</svg>
