<?xml version="1.0" encoding="utf-8"?>
<!-- Generator: Adobe Illustrator 22.1.0, SVG Export Plug-In . SVG Version: 6.00 Build 0)  -->
<svg version="1.1" id="Layer_1" xmlns="http://www.w3.org/2000/svg" xmlns:xlink="http://www.w3.org/1999/xlink" x="0px" y="0px"
	 viewBox="0 0 60 60" width="60" height="60" style="enable-background:new 0 0 60 60;" xml:space="preserve">
<style type="text/css">
	.st0{fill:none;stroke:#FFFFFF;stroke-width:2;stroke-miterlimit:10;}
	.st1{fill:none;stroke:#FFFFFF;stroke-miterlimit:10;}
</style>
<g>
	<circle class="st0" cx="30" cy="29.7" r="17.2"/>
	<path class="st1" d="M21.2,15c0,0,5.5-0.9,6.7,0s-10.5,3.1-10.5,3.1"/>
	<path class="st1" d="M36.4,13.8c0,0-0.1,2.4-11.4,5.7c-0.3,0.1-0.2,0.6,0.1,0.6c7.7-0.4,12.1-1.2,16.4-3.1"/>
	<path class="st1" d="M12.8,26.1h7.7c8.3,0,16.5-1.8,24-5.3l0,0"/>
	<path class="st1" d="M16.4,40.2c0,0,15-3.1,17.6-1.4c2.6,1.7-13.2,5.4-13.2,5.4"/>
	<path class="st1" d="M24.8,46.1l4.9-1.4c5.2-1.5,10.3-3.7,15-6.4l0,0"/>
	<path class="st1" d="M13.2,26.1C6,26.9,1.3,28.2,1.3,29.7c0,2.5,12.8,4.5,28.7,4.5c15.8,0,28.7-2,28.7-4.5c0-1.5-4.7-2.9-11.9-3.7
		 M47,26.9c3.9,0.5,6.3,1.3,6.3,2.1c0,1.7-10.4,3-23.3,3S6.7,30.6,6.7,29c0-0.8,2.4-1.5,6.4-2.1"/>
	<path class="st1" d="M19.3,33.9c-3.2,0.8-5.9,1.3-6.5,1.3"/>
	<path class="st1" d="M12.8,29.7c0,0,17.3-1.3,18.6,0c0.5,0.5-1.7,1.3-4.7,2.3"/>
	<path class="st1" d="M46.5,25.2c0,0-9.4,4-14.1,6.8"/>
</g>
</svg>
