<?xml version="1.0" encoding="utf-8"?>
<!-- Generator: Adobe Illustrator 22.1.0, SVG Export Plug-In . SVG Version: 6.00 Build 0)  -->
<svg version="1.1" id="Layer_1" xmlns="http://www.w3.org/2000/svg" xmlns:xlink="http://www.w3.org/1999/xlink" x="0px" y="0px"
	 viewBox="0 0 205 205" width="205" height="205" style="enable-background:new 0 0 205 205;" xml:space="preserve">
<style type="text/css">
	.st0{fill:none;stroke:#FFFFFF;stroke-miterlimit:10;}
	.st1{fill:none;stroke:#FFFFFF;stroke-width:2;stroke-miterlimit:10;}
</style>
<g>
	<circle class="st0" cx="102.5" cy="102.5" r="83.8"/>
	<circle class="st1" cx="102.5" cy="102.5" r="90.8"/>
	<path class="st1" d="M202.7,102.5l-7.2,8.4c-2.3,2.7-2.9,6.5-1.4,9.8l4.5,10.1l-9.3,6c-3,1.9-4.6,5.4-4.1,9l1.5,10.9l-10.6,3.2
		c-3.4,1-6,3.9-6.5,7.5l-1.6,10.9l-11,0.1c-3.6,0-6.8,2.1-8.3,5.4l-4.6,10l-10.6-3.1c-3.4-1-7.1,0.1-9.5,2.8l-7.3,8.3l-9.3-5.9
		c-3-1.9-6.9-1.9-9.9,0l-9.3,5.9l-7.3-8.3c-2.4-2.7-6-3.8-9.5-2.8l-10.6,3.1l-4.6-10c-1.5-3.2-4.7-5.3-8.3-5.4l-11-0.1l-1.6-10.9
		c-0.5-3.5-3.1-6.5-6.5-7.5l-10.6-3.2l1.5-10.9c0.5-3.5-1.1-7-4.1-9l-9.3-6l4.5-10.1c1.5-3.3,0.9-7.1-1.4-9.8l-7.2-8.4l7.2-8.4
		c2.3-2.7,2.9-6.5,1.4-9.8L6.3,74.3l9.3-6c3-1.9,4.6-5.4,4.1-9l-1.5-10.9l10.6-3.2c3.4-1,6-3.9,6.5-7.5l1.6-10.9l11-0.1
		c3.6,0,6.8-2.1,8.3-5.4l4.6-10l10.6,3.1c3.4,1,7.1-0.1,9.5-2.8l7.3-8.3l9.3,5.9c3,1.9,6.9,1.9,9.9,0l9.3-5.9l7.3,8.3
		c2.4,2.7,6,3.8,9.5,2.8l10.6-3.1l4.6,10c1.5,3.2,4.7,5.3,8.3,5.4l11,0.1l1.6,10.9c0.5,3.5,3.1,6.5,6.5,7.5l10.6,3.2l-1.5,10.9
		c-0.5,3.5,1.1,7,4.1,9l9.3,6l-4.5,10.1c-1.5,3.3-0.9,7.1,1.4,9.8L202.7,102.5z"/>
</g>
</svg>
